<?xml version="1.0" encoding="UTF-8" standalone="no"?><!DOCTYPE svg PUBLIC "-//W3C//DTD SVG 1.1//EN" "http://www.w3.org/Graphics/SVG/1.1/DTD/svg11.dtd"><svg width="100%" height="100%" viewBox="0 0 267 267" version="1.1" xmlns="http://www.w3.org/2000/svg" xmlns:xlink="http://www.w3.org/1999/xlink" xml:space="preserve" xmlns:serif="http://www.serif.com/" style="fill-rule:evenodd;clip-rule:evenodd;"><g><path d="M216.667,45.833l0,175c0,9.199 -7.468,16.667 -16.667,16.667l-133.333,0c-9.199,0 -16.667,-7.468 -16.667,-16.667l0,-175c0,-9.199 7.468,-16.667 16.667,-16.667l133.333,0c9.199,0 16.667,7.468 16.667,16.667Z" style="fill:none;stroke:#bb86fc;stroke-width:7.2px;"/><text x="104.144px" y="172.9px" style="font-family:'Helvetica-Bold', 'Helvetica';font-weight:700;font-size:111.77px;fill:#bb86fc;">1</text><path d="M77.773,35.513c-0.675,0.008 -1.415,0.075 -2.208,0.184c2.664,1.978 4.938,4.373 6.532,6.816c0.16,0 0.32,0.001 0.479,0.005c1.746,0.038 3.43,0.281 5.143,0.696c-1.517,-2.75 -2.893,-4.85 -4.586,-6.11c-1.335,-0.993 -2.905,-1.563 -5.076,-1.59c-0.093,-0.001 -0.188,-0.001 -0.285,0l-0,0Zm-8.858,2.219c-0.071,-0 -0.141,0.001 -0.212,0.002c-1.357,0.03 -2.837,0.379 -4.529,1.076c5.429,1.818 10.339,4.877 12.941,8.078c1.776,-0.496 2.845,-1.423 3.523,-2.785c-3.359,-2.84 -6.038,-4.965 -8.692,-5.857c-0.983,-0.33 -1.975,-0.513 -3.031,-0.514l0,0Zm-0.02,5.101c-3.81,0.653 -7.222,3.078 -8.487,7.17l0,31.152l20.559,0c-12.915,-4.676 -16.7,-27.492 -4.53,-25.21c0.564,-1.369 0.959,-2.709 1.065,-4.007l1.8,0.147c-0.163,1.99 -0.853,3.913 -1.743,5.793c-0.071,0.197 -0.142,0.398 -0.211,0.586c3.174,8.238 10.995,15.529 16.38,16.255c0.088,0.003 0.184,-0 0.285,-0.009c1.644,0.1 3.466,-0.408 5.046,-2.155l0.772,-0.853l-1.012,-0.547c-0.629,-0.34 -1.381,-0.686 -1.756,-1.056c-0.187,-0.185 -0.27,-0.335 -0.297,-0.502c-0.027,-0.167 -0.013,-0.409 0.216,-0.829l1.031,-1.9l-2.076,0.601c-0.609,0.176 -1.672,-0.293 -2.244,-1.035c-0.286,-0.371 -0.426,-0.764 -0.424,-1.048c0.002,-0.284 0.07,-0.495 0.459,-0.778l1.88,-1.365l-2.308,-0.263c-0.964,-0.11 -1.582,-0.643 -1.853,-1.188c-0.271,-0.544 -0.223,-0.975 0.133,-1.286l1.179,-1.032l-1.484,-0.503c-0.649,-0.22 -0.995,-0.73 -1.001,-1.028c-0.003,-0.133 0.023,-0.258 0.178,-0.433c1.056,-0.231 2.054,-0.043 2.714,0.616c0.595,0.594 0.807,1.462 0.674,2.4c0.826,-0.218 1.641,-0.156 2.33,0.241c0.903,0.521 1.416,1.516 1.514,2.703c1.47,-0.979 3.107,-1.23 4.374,-0.499c1.495,0.862 2.064,2.852 1.624,5.001c2.319,-3.223 3.343,-7.317 0.543,-11.639c-4.516,-0.429 -7.895,-2.965 -9.016,-6.537c-0.486,-1.548 -2.057,-2.771 -4.059,-3.663l-0.008,0.021c-2.874,-1.046 -5.371,-1.677 -7.983,-1.81l0.008,0.015c-0.222,-0.009 -0.441,-0.015 -0.653,-0.017c-0.922,2.211 -2.77,3.856 -5.551,4.451l-0.571,0.122l-0.346,-0.47c-1.374,-1.868 -3.985,-3.909 -7.152,-5.612l0,0Zm15.097,6.307c2.699,-0.007 4.337,1.123 4.068,4.296c-3.464,0.328 -5.019,-1.612 -6.096,-4.12c0.725,-0.112 1.405,-0.174 2.028,-0.176l0,-0Zm4.678,6.413c0.358,0.007 0.69,0.096 0.968,0.272c-0.146,0.106 -0.28,0.22 -0.402,0.342c-0.507,0.506 -0.782,1.171 -0.769,1.811c0.018,0.901 0.509,1.661 1.225,2.18c-0.303,0.783 -0.237,1.687 0.136,2.437c0.368,0.741 1.019,1.379 1.865,1.778c-0.14,0.325 -0.23,0.663 -0.232,0.998c-0.006,0.812 0.327,1.55 0.8,2.164c0.656,0.851 1.63,1.54 2.708,1.731c-0.018,0.211 -0.02,0.419 0.013,0.619c0.101,0.623 0.436,1.127 0.81,1.496c0.33,0.326 0.695,0.569 1.044,0.772c-0.613,0.463 -1.2,0.682 -1.799,0.753c-0.63,-0.767 -0.938,-1.844 -0.909,-3.04c-1.137,0.597 -2.34,0.692 -3.297,0.139c-1.418,-0.818 -1.874,-2.806 -1.274,-4.864c-1.096,0.268 -2.139,0.089 -2.821,-0.593c-0.858,-0.857 -0.921,-2.283 -0.299,-3.668c-0.355,-0.059 -0.673,-0.209 -0.921,-0.457c-0.851,-0.85 -0.558,-2.521 0.655,-3.733c0.758,-0.757 1.696,-1.156 2.5,-1.14l-0,0Z" style="fill:#bb86fc;fill-rule:nonzero;"/><path d="M172.606,186.192c-1.375,-0.001 -2.995,1.454 -2.995,4.258c0,1.925 -0.484,3.562 -1.291,4.778c-0.807,1.216 -1.975,2.038 -3.284,2.13c-1.309,0.093 -2.631,-0.612 -3.557,-1.941c-0.618,-0.886 -1.085,-2.074 -1.401,-3.538c-0.812,1.413 -1.158,2.82 -1.112,4.167c0.066,1.932 0.923,3.786 2.516,5.379c4.194,4.194 14.514,0.693 14.514,-8.155c0,-2.647 -0.505,-4.454 -1.16,-5.546c-0.655,-1.092 -1.398,-1.48 -2.098,-1.53c-0.044,-0.003 -0.087,-0.003 -0.132,-0.003l-0,-0Zm21.455,0.074c-0.044,0 -0.088,0 -0.132,0.003c-0.701,0.049 -1.443,0.438 -2.098,1.529c-0.655,1.092 -1.16,2.899 -1.16,5.546c0,8.849 10.317,12.346 14.511,8.152c1.593,-1.593 2.453,-3.447 2.519,-5.379c0.046,-1.348 -0.303,-2.754 -1.115,-4.168c-0.316,1.465 -0.78,2.651 -1.398,3.538c-0.926,1.328 -2.251,2.036 -3.56,1.944c-1.309,-0.092 -2.473,-0.914 -3.281,-2.131c-0.668,-1.005 -1.096,-2.311 -1.231,-3.817l-0.061,0l0,-0.961c0,-2.804 -1.62,-4.258 -2.995,-4.258l-0,0Zm-10.584,0.62c-2.015,0.001 -4.074,0.86 -5.922,2.683c0.234,1.065 0.363,2.294 0.363,3.702c0,4.85 -2.673,8.476 -6.092,10.382c-0.056,0.459 -0.105,0.926 -0.148,1.404c-0.262,0.97 -0.365,2.066 -0.292,3.229c0.109,1.737 0.593,3.313 1.35,4.524c0.603,0.965 1.425,1.748 2.419,2.028c1.579,3.71 2.196,8.098 2.23,13.178c0.707,0.636 1.414,1.143 2.121,1.53c0.252,-3.184 -0.096,-6.354 -0.203,-9.653l-0.109,-3.307l1.864,2.735l2.108,3.094l2.24,-3.162l1.809,-2.551l-0.064,3.126c-0.067,3.253 -0.31,6.448 -0.17,9.588c0.683,-0.374 1.372,-0.843 2.066,-1.417c0.016,-3.84 0.24,-7.399 1.157,-10.597c0.242,-0.845 0.536,-1.664 0.887,-2.455c1.324,-0.032 2.399,-0.947 3.143,-2.137c0.757,-1.211 1.241,-2.787 1.349,-4.524c0.075,-1.203 -0.036,-2.335 -0.318,-3.329c-0.033,-0.36 -0.069,-0.714 -0.109,-1.064c-3.566,-1.857 -6.404,-5.554 -6.404,-10.549c0,-1.537 0.154,-2.861 0.431,-3.991c-1.791,-1.678 -3.767,-2.469 -5.704,-2.468l0,0Zm-8.252,16.535c0.434,0 1.037,0.362 1.584,1.237c0.547,0.876 0.97,2.181 1.061,3.628c0.09,1.447 -0.171,2.74 -0.594,3.586c-0.423,0.847 -0.893,1.157 -1.327,1.157c-0.434,0 -1.037,-0.361 -1.584,-1.237c-0.547,-0.876 -0.97,-2.181 -1.06,-3.628c-0.09,-1.447 0.171,-2.739 0.595,-3.586c0.423,-0.847 0.893,-1.157 1.327,-1.157Zm16.516,0c0.434,0 0.904,0.31 1.327,1.157c0.423,0.847 0.685,2.139 0.594,3.586c-0.09,1.447 -0.513,2.752 -1.06,3.628c-0.547,0.876 -1.15,1.237 -1.584,1.237c-0.434,0 -0.904,-0.31 -1.327,-1.157c-0.423,-0.847 -0.685,-2.139 -0.594,-3.586c0.09,-1.447 0.513,-2.752 1.06,-3.628c0.547,-0.875 1.15,-1.237 1.584,-1.237l0,-0Zm-6.619,19.556l-1.189,1.677l-0.8,1.128l-0.778,-1.144l-0.971,-1.424c0.128,2.304 0.233,4.638 -0.016,7.069c0.584,0.148 1.167,0.219 1.751,0.215c0.651,-0.004 1.312,-0.103 1.979,-0.296c-0.155,-2.44 -0.069,-4.844 0.023,-7.227l0,0Z" style="fill:#bb86fc;fill-rule:nonzero;"/></g></svg>